<?xml version="1.0" standalone="no"?>
<!DOCTYPE svg PUBLIC "-//W3C//DTD SVG 20010904//EN"
 "http://www.w3.org/TR/2001/REC-SVG-20010904/DTD/svg10.dtd">
<svg version="1.0" xmlns="http://www.w3.org/2000/svg"
 width="261.000000pt" height="261.000000pt" viewBox="0 0 261.000000 261.000000"
 preserveAspectRatio="xMidYMid meet">

<g transform="translate(0.000000,261.000000) scale(0.100000,-0.100000)"
fill="#000000" stroke="none">
<path d="M720 2151 l-45 -17 0 -51 c1 -48 -1 -51 -32 -62 -34 -13 -63 -36 -63
-51 0 -16 31 -19 67 -6 l38 13 0 -33 c0 -19 -4 -34 -10 -34 -5 0 -3 -4 5 -10
12 -7 12 -13 1 -33 -26 -48 -12 -70 57 -93 l63 -21 84 20 c46 12 82 24 79 28
-2 4 -37 -1 -76 -12 -40 -10 -74 -19 -75 -19 -2 0 -3 8 -3 18 0 15 14 22 70
34 48 10 71 11 73 4 5 -16 27 55 24 77 -2 10 -6 18 -10 18 -10 1 -119 -22
-134 -28 -8 -3 -13 3 -13 15 0 16 11 22 64 32 36 7 69 9 74 6 17 -11 20 18 3
31 -14 11 -13 12 6 13 12 0 29 7 37 16 26 26 19 59 -20 94 -31 27 -43 31 -80
28 -37 -3 -45 0 -55 19 -15 28 -62 29 -129 4z m43 -207 c35 -12 47 -21 47 -36
0 -14 -5 -18 -17 -14 -10 3 -37 10 -60 16 -32 8 -43 16 -43 30 0 24 12 25 73
4z m205 -61 c-2 -12 -24 -24 -63 -37 -57 -18 -62 -18 -132 -1 -48 11 -73 22
-73 31 0 17 28 17 90 1 38 -10 53 -9 95 5 66 23 87 23 83 1z m-215 -59 c35
-12 47 -21 47 -36 0 -15 -5 -18 -16 -14 -9 4 -36 11 -60 17 -33 8 -44 16 -44
30 0 23 13 24 73 3z"/>
<path d="M1240 2064 c0 -34 -29 -94 -49 -102 -28 -11 -64 -44 -193 -179 -17
-18 -45 -37 -62 -41 -44 -12 -166 -5 -235 13 -83 21 -101 19 -174 -19 -35 -18
-76 -36 -90 -40 -39 -9 -49 -39 -48 -131 1 -71 -2 -89 -24 -126 -23 -41 -35
-119 -17 -119 4 0 13 -13 20 -30 17 -38 32 -39 32 -1 0 16 7 45 15 65 12 29
14 59 9 144 -6 90 -4 113 10 140 20 38 29 42 16 6 -15 -37 -12 -115 5 -164 23
-66 20 -117 -11 -145 -24 -23 -25 -26 -15 -81 6 -32 11 -77 11 -101 0 -30 4
-43 14 -43 9 0 12 -7 9 -19 -9 -35 70 -70 83 -36 3 8 -4 28 -15 44 -26 36 -36
81 -26 118 l7 28 13 -35 c8 -19 14 -47 14 -62 1 -19 6 -28 17 -28 10 0 14 -6
11 -14 -8 -20 24 -46 56 -46 33 0 36 26 7 63 -61 78 -61 145 1 215 21 25 39
49 39 53 0 5 12 4 28 -2 15 -6 79 -12 143 -13 l117 -1 7 -102 c4 -56 4 -116 0
-132 -4 -18 -2 -31 3 -31 5 0 12 -13 16 -30 5 -27 10 -30 41 -30 19 0 35 5 35
11 0 8 5 7 15 -1 12 -10 19 -10 27 -2 8 8 4 21 -12 49 -18 29 -23 53 -23 98 1
78 29 194 53 220 26 28 40 69 40 116 0 50 69 201 88 194 8 -3 26 -5 42 -5 22
0 29 -5 32 -22 4 -30 52 -37 79 -12 34 31 32 50 -11 114 -22 33 -38 65 -34 71
3 6 -7 27 -24 48 -21 26 -28 42 -21 52 10 16 12 73 2 82 -3 4 -14 -10 -24 -30
l-17 -38 -1 32 c-1 38 -10 63 -22 63 -5 0 -9 -12 -9 -26z"/>
<path d="M1287 1333 c-4 -3 -7 -20 -7 -37 l1 -31 15 28 c13 23 21 28 47 25
l32 -3 3 -85 c3 -77 1 -87 -19 -102 -21 -18 -20 -18 42 -17 54 0 60 2 42 11
-21 10 -23 17 -23 105 l0 94 32 -3 c23 -2 36 -11 45 -28 12 -24 13 -24 13 13
l0 37 -108 0 c-60 0 -112 -3 -115 -7z"/>
<path d="M1550 1261 c-17 -5 -21 -9 -12 -15 16 -9 16 -108 0 -124 -9 -9 0 -12
41 -12 53 0 53 0 31 18 -20 16 -21 23 -13 62 8 41 11 45 36 42 19 -2 27 2 27
13 0 24 -28 30 -50 10 -18 -16 -20 -17 -20 -2 0 18 -2 19 -40 8z"/>
<path d="M1730 1263 c-34 -13 -50 -37 -50 -74 0 -70 81 -103 136 -56 51 45 28
120 -41 131 -17 3 -37 3 -45 -1z m64 -45 c20 -57 -29 -115 -61 -72 -16 22 -17
58 -2 85 15 29 51 21 63 -13z"/>
<path d="M1885 1260 c-24 -4 -26 -7 -12 -12 14 -6 17 -21 17 -97 0 -75 -3 -92
-17 -100 -14 -8 -5 -10 37 -10 42 0 51 2 38 10 -10 6 -18 22 -18 37 0 26 3 28
34 24 27 -3 40 2 60 22 60 59 1 157 -76 128 -15 -5 -28 -7 -30 -3 -2 4 -16 4
-33 1z m115 -45 c13 -63 -19 -105 -55 -75 -18 15 -20 81 -3 98 22 22 52 10 58
-23z"/>
<path d="M2098 1259 c-20 -11 -24 -39 -7 -39 7 0 17 7 24 17 14 19 45 11 45
-12 0 -8 -16 -23 -37 -32 -20 -10 -41 -25 -47 -35 -21 -35 41 -66 73 -35 11
10 14 10 18 0 6 -15 39 -17 48 -3 3 6 1 10 -4 10 -7 0 -11 23 -11 54 0 36 -5
60 -16 70 -17 18 -60 20 -86 5z m60 -91 c-2 -15 -11 -24 -25 -26 -28 -4 -31
22 -5 37 26 16 34 13 30 -11z"/>
<path d="M460 979 c0 -4 7 -9 15 -13 12 -4 15 -24 15 -90 0 -70 -3 -87 -17
-95 -13 -8 8 -10 78 -11 92 0 97 1 103 23 8 31 7 37 -4 37 -5 0 -10 -7 -10
-15 0 -30 -73 -48 -98 -23 -7 7 -12 44 -12 95 0 69 3 83 16 83 8 0 12 5 9 10
-7 11 -95 11 -95 -1z"/>
<path d="M700 980 c0 -5 5 -10 10 -10 6 0 10 -38 10 -94 0 -82 -2 -95 -17 -99
-10 -3 9 -5 42 -5 33 0 52 2 43 5 -16 4 -18 17 -18 99 0 56 4 94 10 94 6 0 10
5 10 10 0 6 -20 10 -45 10 -25 0 -45 -4 -45 -10z"/>
<path d="M820 982 c0 -4 8 -12 19 -19 10 -6 33 -49 51 -95 37 -92 49 -113 61
-101 4 4 24 50 45 101 20 52 43 96 50 99 28 10 13 23 -26 23 -22 0 -40 -4 -40
-10 0 -5 7 -10 16 -10 17 0 16 -8 -20 -96 l-23 -56 -26 72 c-32 84 -31 80 -11
80 8 0 12 5 9 10 -7 12 -105 14 -105 2z"/>
<path d="M1096 981 c-4 -6 -1 -11 8 -11 25 0 23 -175 -1 -189 -14 -8 -3 -10
42 -10 46 0 55 2 38 9 -19 8 -23 17 -23 52 l1 43 47 -53 c38 -43 53 -52 79
-52 l32 0 -50 47 -50 47 25 13 c35 18 44 59 20 84 -23 22 -157 39 -168 20z
m122 -23 c22 -22 14 -58 -14 -68 -35 -14 -44 -6 -44 41 0 34 3 39 23 39 13 0
28 -5 35 -12z"/>
<path d="M1350 980 c0 -5 5 -10 10 -10 6 0 10 -38 10 -94 0 -82 -2 -95 -17
-99 -10 -3 28 -5 85 -6 l102 -1 0 31 0 32 -25 -27 c-43 -46 -95 -33 -95 25 0
32 4 39 20 39 10 0 24 -8 29 -17 8 -14 10 -8 10 27 0 35 -2 41 -10 28 -5 -10
-19 -18 -29 -18 -17 0 -20 7 -20 40 0 38 2 40 29 40 39 0 61 -9 61 -26 0 -8 5
-14 11 -14 6 0 9 12 7 28 -3 27 -3 27 -90 30 -56 2 -88 -1 -88 -8z"/>
<path d="M1628 980 c-53 -32 -41 -83 28 -120 32 -16 49 -32 49 -44 0 -47 -74
-45 -99 2 l-15 27 -1 -38 c0 -21 4 -36 9 -33 5 3 22 1 39 -5 41 -14 99 10 108
46 8 33 -16 61 -74 87 -34 15 -43 24 -40 41 5 34 50 35 77 1 l21 -27 0 30 c0
17 -5 30 -12 30 -7 1 -26 4 -43 7 -16 3 -38 1 -47 -4z"/>
<path d="M1864 976 c-43 -19 -64 -53 -64 -102 0 -81 78 -132 152 -101 27 12
38 12 42 4 2 -7 5 5 5 27 l1 38 -29 -31 c-35 -37 -64 -39 -96 -6 -50 49 -21
165 41 165 25 0 63 -31 65 -52 1 -17 17 23 18 44 1 10 -6 17 -16 17 -10 -1
-34 2 -53 5 -21 4 -47 1 -66 -8z"/>
<path d="M2105 893 c-20 -54 -45 -104 -53 -110 -13 -11 -10 -13 24 -13 25 0
34 3 26 9 -8 5 -12 17 -10 27 5 29 83 33 97 5 9 -16 8 -22 -6 -30 -14 -8 -4
-10 41 -11 57 0 58 0 37 18 -11 9 -37 57 -58 106 -21 49 -43 91 -49 93 -6 2
-28 -41 -49 -94z m65 -34 c0 -5 -13 -9 -30 -9 -35 0 -34 -3 -14 46 l16 38 14
-33 c8 -18 14 -37 14 -42z"/>
</g>
</svg>
